<?xml version="1.0" standalone="no"?>
<!DOCTYPE svg PUBLIC "-//W3C//DTD SVG 20010904//EN"
 "http://www.w3.org/TR/2001/REC-SVG-20010904/DTD/svg10.dtd">
<svg version="1.0" xmlns="http://www.w3.org/2000/svg"
 width="600.000000pt" height="600.000000pt" viewBox="0 0 600.000000 600.000000"
 preserveAspectRatio="xMidYMid meet">
<metadata>
Created by potrace 1.14, written by Peter Selinger 2001-2017
</metadata>
<g transform="translate(0.000000,600.000000) scale(0.100000,-0.100000)"
fill="#000000" stroke="none">
<path d="M1845 5393 c-571 -69 -1019 -339 -1330 -803 -102 -152 -208 -397
-245 -565 -34 -151 -34 -395 -1 -558 77 -380 268 -692 614 -998 l39 -35 -36
-134 c-19 -74 -40 -149 -45 -166 -9 -31 -1 -56 64 -199 12 -27 75 -174 140
-325 65 -151 126 -282 135 -290 10 -8 56 -44 102 -80 45 -35 136 -106 201
-158 64 -51 121 -90 126 -87 11 6 141 171 141 179 0 3 -28 26 -62 53 -35 26
-74 58 -88 70 l-25 23 113 0 112 0 0 120 0 120 -237 2 -237 3 -119 275 -119
275 16 70 c23 99 23 99 81 62 72 -45 135 -80 262 -143 104 -51 116 -60 157
-117 91 -127 190 -207 327 -263 46 -19 83 -37 82 -41 -1 -5 -25 -75 -53 -156
l-51 -148 63 -105 c35 -58 69 -115 76 -127 6 -12 85 -141 175 -286 l162 -263
275 -170 c254 -156 276 -167 288 -151 26 35 114 184 111 187 -2 2 -51 32 -108
67 l-105 64 137 3 137 3 0 119 0 120 -302 0 -303 1 -171 281 -172 282 78 229
c43 125 89 243 103 260 73 96 186 186 309 245 84 41 215 87 277 97 19 3 37 8
41 10 3 2 30 6 60 10 29 3 56 8 59 10 4 2 65 6 136 9 201 10 235 15 307 45 78
33 131 72 206 150 101 106 182 248 331 586 81 184 77 179 132 160 24 -9 91
-42 149 -74 119 -66 209 -103 293 -122 l58 -12 108 -151 c211 -296 374 -543
458 -696 16 -30 65 -118 108 -195 43 -77 94 -169 113 -205 31 -58 122 -225
175 -320 159 -289 223 -319 141 -68 -31 93 -122 328 -169 433 -7 17 -66 152
-130 300 -65 149 -129 295 -142 325 -26 56 -236 560 -266 636 l-16 42 49 41
c111 94 207 257 243 416 67 293 -87 659 -378 901 -264 219 -581 267 -966 148
-46 -14 -110 -33 -142 -41 -69 -16 -47 -29 -272 157 -266 221 -431 333 -649
442 -302 152 -579 219 -911 223 -104 1 -203 0 -220 -2z m485 -257 c112 -21
118 -22 170 -36 158 -42 323 -112 505 -215 99 -55 331 -222 445 -321 177 -152
272 -221 323 -235 63 -17 151 -4 307 46 167 52 240 64 375 61 120 -4 209 -32
320 -101 201 -125 362 -374 381 -587 16 -192 -94 -388 -268 -478 -66 -34 -66
-34 -140 -24 -93 14 -170 45 -302 123 -122 72 -187 99 -260 107 -150 17 -210
-50 -367 -411 -145 -336 -267 -501 -393 -534 -23 -6 -100 -13 -172 -16 -72 -3
-140 -7 -150 -9 -11 -2 -40 -6 -65 -10 -82 -12 -103 -16 -198 -42 -303 -82
-530 -231 -688 -452 -29 -40 -52 -62 -65 -62 -30 0 -123 46 -182 89 -59 44
-122 112 -163 177 -16 24 -31 44 -35 44 -15 0 -187 84 -273 133 -224 127 -427
288 -585 463 -186 206 -316 470 -354 721 -14 94 -15 281 -2 348 95 480 433
907 875 1108 134 60 350 116 506 130 95 8 375 -2 455 -17z"/>
<path d="M4635 3831 c-45 -20 -70 -60 -70 -112 0 -42 5 -53 33 -81 28 -28 39
-33 82 -33 43 0 54 5 82 33 28 28 33 39 33 82 0 42 -5 54 -31 81 -33 33 -92
46 -129 30z"/>
</g>
</svg>
